<?xml version="1.0" standalone="no"?>
<!DOCTYPE svg PUBLIC "-//W3C//DTD SVG 20010904//EN"
 "http://www.w3.org/TR/2001/REC-SVG-20010904/DTD/svg10.dtd">
<svg version="1.0" xmlns="http://www.w3.org/2000/svg"
 width="500.000000pt" height="500.000000pt" viewBox="0 0 500.000000 500.000000"
 preserveAspectRatio="xMidYMid meet">

<g transform="translate(0.000000,500.000000) scale(0.100000,-0.100000)"
fill="#FFFFFF" stroke="none">
<path d="M2215 4985 c-195 -43 -439 -168 -578 -294 l-57 -53 -68 40 c-82 50
-287 144 -361 166 -103 30 -127 20 -160 -71 -36 -100 -45 -175 -30 -278 10
-74 10 -100 0 -121 -6 -15 -10 -29 -7 -31 2 -2 7 5 11 17 7 21 8 21 25 -7 10
-17 16 -41 13 -55 -3 -15 4 -47 16 -73 12 -26 21 -53 21 -59 -1 -6 -35 -47
-76 -91 -70 -73 -76 -77 -71 -49 3 17 8 55 11 85 5 45 3 42 -10 -21 -8 -41
-19 -90 -25 -107 -6 -18 -14 -74 -20 -125 -16 -153 -86 -546 -136 -761 -14
-60 -23 -111 -20 -113 12 -12 116 503 153 756 21 145 33 170 79 170 35 0 35 0
15 -20 -13 -13 -20 -32 -19 -52 1 -18 3 -25 6 -15 2 9 8 17 12 17 14 0 84 -71
77 -77 -9 -10 25 -43 44 -43 11 0 21 -14 28 -39 17 -54 15 -66 -13 -130 -38
-85 -76 -227 -135 -501 -17 -80 -35 -161 -40 -180 -5 -19 -21 -84 -36 -144
-14 -60 -40 -159 -59 -220 -18 -61 -38 -131 -45 -156 -6 -25 -27 -95 -45 -156
-32 -101 -82 -316 -91 -389 -4 -28 -3 -29 5 -5 5 14 23 72 39 130 16 58 41
143 56 190 49 163 104 356 126 445 25 105 54 220 81 325 10 41 39 165 64 274
25 110 56 222 70 250 l25 51 -7 -100 c-17 -266 -6 -488 33 -669 14 -67 14 -71
-16 -194 -35 -146 -188 -606 -360 -1087 -12 -33 -33 -84 -46 -113 -13 -29 -24
-56 -24 -60 0 -4 -23 -63 -51 -132 -56 -137 -145 -395 -185 -534 -32 -112 -41
-280 -25 -426 16 -140 19 -150 43 -150 18 0 20 4 14 32 l-6 32 28 -32 c23 -25
37 -32 65 -32 30 0 37 4 37 20 0 12 7 20 16 20 11 0 15 -6 11 -20 -4 -17 0
-20 29 -20 19 0 34 4 34 9 0 5 9 13 20 16 12 4 20 15 20 28 0 20 0 20 -15 1
-11 -14 -14 -15 -14 -4 0 8 5 23 12 32 12 15 14 15 25 -2 6 -11 9 -33 6 -50
l-6 -30 76 0 c44 0 76 4 76 10 0 6 -6 10 -13 10 -8 0 -22 9 -32 20 -17 18 -8
30 9 13 10 -11 56 -11 50 -1 -3 4 -13 8 -23 8 -10 0 -26 9 -36 20 -21 24 -13
26 18 5 13 -8 33 -13 46 -10 23 4 53 -20 77 -61 7 -10 15 -16 19 -12 3 3 -1
18 -11 32 -9 15 -14 29 -11 32 3 3 31 1 63 -5 32 -6 91 -11 132 -11 l74 0 -16
-25 c-14 -21 -14 -25 -2 -25 8 0 23 11 33 23 10 13 36 30 58 37 109 35 178 89
215 166 11 24 30 93 42 154 l21 110 54 40 c30 22 52 37 50 33 -3 -5 -26 -62
-52 -128 -25 -66 -80 -189 -121 -273 -41 -84 -74 -155 -74 -157 0 -3 9 -5 20
-5 11 0 20 6 20 13 0 7 23 65 51 127 27 63 59 138 71 165 11 28 28 68 38 90 9
22 27 67 40 100 35 93 42 106 89 170 24 33 56 86 72 117 16 32 31 58 34 58 2
0 2 -15 0 -32 l-5 -33 11 35 c52 167 116 340 134 361 19 24 23 25 41 12 10 -8
25 -18 33 -22 10 -6 8 -19 -12 -62 -14 -30 -29 -71 -32 -92 -6 -29 -15 -42
-39 -54 -43 -22 -55 -42 -56 -88 0 -77 62 -124 131 -100 35 13 37 12 73 -22
30 -29 36 -42 36 -77 1 -77 20 -177 44 -224 27 -53 35 -131 36 -319 0 -105 2
-123 16 -123 14 0 15 20 8 178 l-7 177 84 -89 c98 -103 97 -102 105 -152 8
-50 11 -52 19 -16 l6 29 102 -51 c138 -70 171 -77 372 -75 169 1 199 4 175 19
-8 5 4 15 35 29 26 11 52 18 58 14 5 -3 7 -1 3 5 -4 7 4 10 24 10 22 -1 27 -4
20 -13 -13 -15 -3 -25 26 -25 17 0 21 -4 17 -20 -4 -14 0 -20 11 -20 21 0 22
58 1 66 -8 4 -12 10 -9 15 8 14 24 11 24 -5 0 -7 7 -19 15 -26 14 -11 14 -10
6 12 -12 32 -3 44 15 20 13 -16 13 -16 14 2 0 18 1 18 19 2 11 -10 27 -33 36
-52 18 -39 51 -48 39 -11 -3 12 -3 19 1 15 5 -4 14 -3 21 2 8 8 17 6 28 -6 9
-9 23 -13 31 -10 9 3 15 0 15 -8 0 -9 22 -13 81 -15 88 -2 106 3 88 25 -13 15
1 20 17 5 14 -15 126 -16 154 -1 l25 13 -19 -22 -19 -21 74 0 c75 0 75 0 117
43 101 103 98 252 -10 435 -21 37 -111 136 -250 276 -120 120 -218 221 -218
223 0 1 13 3 29 3 47 0 73 29 78 86 10 107 -41 108 -154 1 -53 -50 -77 -67
-85 -59 -12 12 -1 35 13 26 6 -3 9 2 7 12 -2 12 2 18 10 16 16 -3 8 12 -24 48
-12 14 -37 42 -55 63 l-33 39 -23 -39 c-22 -37 -22 -38 -3 -45 17 -6 56 -65
48 -73 -2 -2 -20 12 -40 31 l-37 34 -34 -30 c-19 -16 -43 -30 -53 -30 -15 0
-16 -2 -5 -9 12 -8 12 -22 -4 -98 -28 -134 -23 -131 -85 -52 -30 38 -66 90
-80 114 -22 39 -23 47 -10 55 13 8 12 11 -5 16 -26 7 -48 57 -84 191 -23 85
-22 86 68 98 49 7 53 6 48 -11 -3 -11 -8 -53 -12 -94 -5 -62 -3 -85 13 -125
11 -29 18 -65 16 -85 -4 -32 -3 -33 7 -13 7 13 17 23 23 23 8 0 8 2 0 8 -32
22 -61 231 -36 268 12 20 98 32 146 22 40 -8 45 -12 51 -45 3 -19 16 -54 27
-78 l21 -43 -23 -38 -23 -39 27 29 c29 33 32 62 11 121 -8 22 -15 48 -15 58 0
9 -15 27 -32 38 -28 17 -44 20 -110 16 -43 -3 -81 -1 -84 4 -3 5 -14 9 -25 9
-24 0 -24 9 6 155 13 65 23 121 21 123 -7 7 -66 -170 -67 -201 -1 -18 -4 -43
-9 -57 -7 -24 -8 -24 -24 14 -21 47 -19 59 44 243 55 160 139 337 186 392 31
36 32 36 70 22 74 -25 115 -62 148 -131 27 -57 31 -78 34 -167 3 -88 -12 -256
-36 -398 l-7 -39 -53 3 c-32 1 -52 -2 -52 -8 0 -6 16 -11 35 -11 83 0 214 -76
198 -116 -4 -12 -2 -15 8 -12 8 2 15 14 17 25 2 15 -14 33 -63 69 -60 44 -65
50 -60 78 15 89 36 313 36 393 1 170 -44 258 -165 324 -42 23 -90 40 -122 44
-30 3 -54 10 -54 14 0 35 33 78 74 98 127 62 227 290 261 600 16 146 16 145
86 249 26 39 71 115 99 168 29 53 55 96 59 96 13 0 21 -168 27 -580 10 -742
51 -999 210 -1313 52 -103 151 -256 200 -307 42 -45 107 -167 139 -259 33 -98
51 -286 36 -374 -19 -108 -130 -385 -203 -504 -15 -25 -16 -33 -6 -33 8 0 30
30 49 68 18 37 35 69 37 72 2 2 7 -2 12 -10 6 -8 10 -10 10 -5 0 6 -4 15 -9
20 -5 6 7 42 30 90 21 44 39 81 39 83 0 1 0 5 0 9 0 4 4 3 10 -3 11 -11 -7
-76 -47 -167 -33 -76 -32 -75 -44 -57 -9 12 -10 12 -5 -2 3 -10 -1 -21 -8 -25
-8 -5 -17 -23 -21 -40 -6 -30 -4 -33 17 -33 20 0 31 15 71 100 26 56 58 142
71 193 51 188 76 294 86 362 6 39 16 93 22 120 5 28 8 61 6 75 -2 15 -11 -13
-22 -68 -18 -87 -45 -146 -61 -130 -4 4 -12 72 -17 150 -15 241 -65 616 -104
783 -10 41 -46 128 -88 210 -39 77 -80 172 -90 210 -39 141 -94 219 -84 119 3
-27 12 -65 21 -84 9 -19 21 -55 27 -80 7 -25 16 -50 21 -56 4 -5 15 -35 23
-65 8 -30 21 -74 29 -99 8 -25 25 -79 37 -120 12 -41 26 -88 31 -105 45 -146
88 -333 89 -382 0 -28 -31 -11 -46 25 -24 57 -63 168 -88 257 -190 660 -243
1067 -262 2031 l-6 321 42 91 c45 96 63 112 131 112 16 0 29 5 29 10 0 6 30
10 70 10 39 0 70 4 70 10 0 32 -54 263 -85 361 -24 77 -26 110 -8 116 6 2 17
-7 25 -19 23 -35 60 -140 54 -154 -3 -7 0 -14 7 -17 8 -2 12 -63 14 -198 1
-107 7 -225 13 -264 6 -38 15 -99 20 -135 4 -36 13 -99 19 -140 6 -41 15 -140
21 -220 5 -80 19 -244 30 -365 10 -121 20 -250 22 -287 2 -38 6 -68 10 -68 9
0 3 -48 -7 -58 -4 -4 -6 -2 -2 3 3 6 -3 33 -12 61 -10 28 -21 76 -25 108 -4
32 -14 72 -21 89 -7 18 -19 86 -25 152 -11 102 -38 232 -39 185 -2 -73 32
-438 60 -630 40 -280 131 -738 157 -786 25 -47 102 -298 141 -459 20 -83 28
-134 66 -410 8 -55 22 -147 31 -205 22 -142 21 -163 -21 -267 -32 -81 -144
-296 -189 -365 -15 -23 -16 -28 -4 -28 8 0 35 37 60 83 144 257 216 440 264
668 25 114 27 143 27 374 2 412 -34 569 -263 1160 -97 250 -189 528 -205 620
-8 46 -18 134 -21 197 -6 97 -4 119 12 156 20 44 40 58 29 20 -6 -22 -5 -22 8
1 16 28 9 54 92 -334 34 -158 86 -372 120 -490 85 -295 176 -635 200 -750 10
-44 21 -96 25 -115 12 -51 36 -183 51 -275 9 -51 14 -168 14 -320 0 -215 -2
-251 -23 -343 -13 -56 -36 -137 -53 -180 -35 -91 -134 -288 -195 -388 -24 -39
-44 -74 -44 -77 0 -4 50 -7 110 -7 l110 0 -1 48 c-1 42 -2 44 -9 17 -7 -27 -8
-25 -9 18 -1 31 4 54 14 63 9 9 15 34 15 61 0 34 5 49 23 64 l22 20 -25 -5
c-14 -3 -20 -3 -13 0 7 3 9 13 6 22 -6 15 -5 15 10 3 23 -18 30 -10 18 20 -5
13 -10 17 -11 9 0 -13 -2 -13 -9 -1 -7 11 -13 7 -25 -20 -22 -47 -12 -8 17 71
l25 64 8 -44 c4 -25 7 -51 5 -58 -1 -7 3 -30 10 -50 7 -20 14 -44 15 -52 1 -8
7 -42 13 -75 6 -33 13 -86 17 -118 3 -31 10 -57 15 -57 5 0 9 7 9 15 0 31 -51
374 -66 443 -15 69 -15 76 5 155 36 142 44 238 38 452 -3 110 -10 225 -15 255
-6 30 -16 91 -22 135 -27 170 -85 410 -195 795 -160 564 -219 837 -321 1480
-24 153 -93 487 -120 584 -29 104 -52 152 -95 201 -31 35 -31 36 -21 98 20
115 23 156 16 217 -9 79 -38 124 -82 128 -18 2 -31 0 -30 -5 2 -4 -9 -24 -24
-43 -36 -48 -92 -163 -114 -235 -12 -40 -18 -91 -18 -151 1 -87 0 -91 -20 -86
-65 15 -315 84 -339 94 l-29 11 31 13 c17 7 31 20 31 27 0 16 21 27 51 27 28
0 24 36 -7 57 -15 9 -48 18 -73 19 -34 1 -45 5 -43 15 13 57 191 152 427 228
33 10 50 19 39 20 -34 2 -202 -57 -303 -105 -61 -30 -110 -62 -141 -93 l-47
-47 -84 64 c-189 143 -440 232 -649 231 -194 -1 -137 -25 82 -35 47 -2 107 -8
132 -14 109 -24 326 -126 326 -153 0 -4 4 -6 8 -3 5 3 9 0 9 -7 0 -10 -18 -11
-76 -5 -42 5 -106 9 -144 9 -61 1 -78 6 -180 57 -61 30 -130 59 -152 63 -22 4
-63 12 -90 17 -78 16 -245 17 -280 2 l-30 -14 40 -5 40 -6 -50 -13 c-32 -9
-45 -16 -36 -21 9 -6 5 -10 -13 -13 -14 -3 -23 -2 -21 3 3 4 1 10 -5 14 -5 3
-10 -2 -10 -12 -1 -13 -5 -10 -16 11 -16 28 -17 28 -81 23 -36 -2 -70 -10 -76
-16 -8 -8 -5 -11 12 -11 12 0 19 -4 16 -10 -3 -5 -17 -10 -30 -10 -39 0 -256
-116 -322 -172 -83 -71 -80 -82 5 -15 66 52 128 84 207 108 22 6 64 23 93 36
29 14 57 23 62 21 5 -2 -18 -34 -51 -73 -33 -38 -73 -95 -88 -125 -44 -88
-114 -301 -132 -405 -20 -115 -39 -203 -50 -232 -6 -15 -23 -76 -38 -135 l-28
-107 -66 -35 -67 -35 0 99 c0 54 5 134 11 177 14 102 79 296 135 403 50 95 34
82 -27 -22 -83 -142 -174 -423 -199 -618 -17 -133 -23 -396 -12 -485 9 -66 8
-83 -4 -96 -21 -23 -17 -41 7 -37 18 3 25 -8 48 -72 31 -88 60 -139 115 -197
32 -36 35 -43 19 -43 -67 0 -208 121 -271 234 -80 141 -107 277 -99 501 l5
160 -13 -100 c-8 -55 -14 -190 -14 -300 -1 -217 7 -276 58 -450 72 -245 117
-338 209 -435 32 -33 56 -60 55 -60 -7 0 -79 49 -98 66 -54 50 -54 50 -49 -4
2 -28 11 -69 19 -92 8 -24 15 -53 15 -66 0 -23 -2 -24 -79 -24 l-80 0 -15 48
-15 47 5 -47 5 -48 -93 0 c-63 0 -102 -5 -122 -15 -27 -14 -28 -14 -23 8 3 12
13 60 22 107 24 126 25 130 33 130 4 0 17 -15 30 -34 26 -38 149 -108 137 -78
-59 145 -118 370 -145 550 -26 180 -30 624 -5 598 10 -10 15 -36 15 -85 0 -38
5 -93 11 -123 24 -117 51 -224 60 -232 13 -14 11 2 -10 96 -35 151 -37 584 -5
714 4 14 2 24 -4 24 -6 0 -14 -21 -17 -47 -4 -27 -13 -70 -20 -98 -12 -46 -13
-48 -14 -16 -1 19 -3 32 -5 30 -9 -8 -46 -166 -72 -304 -24 -126 -27 -164 -28
-380 0 -156 4 -266 13 -315 14 -83 64 -242 88 -278 8 -13 13 -26 10 -28 -21
-21 -110 221 -132 359 -17 104 -21 492 -6 592 5 33 14 103 21 155 38 296 166
662 303 865 149 220 289 349 481 444 108 53 161 73 341 125 63 18 39 18 -40 1z
m1924 -81 c18 -30 21 -51 21 -139 0 -57 -3 -110 -6 -119 -10 -25 -24 -19 -25
12 l-1 27 -7 -25 c-7 -24 -7 -24 -14 9 -4 18 -7 48 -7 67 0 18 -4 35 -10 39
-5 3 -7 12 -3 20 3 9 0 22 -7 30 -9 10 -9 15 -1 15 6 0 11 7 11 15 0 8 -4 15
-8 15 -5 0 -9 7 -9 15 0 8 4 15 8 15 4 0 11 9 14 20 9 29 20 25 44 -16z
m-1411 -16 c199 -64 280 -108 383 -208 136 -133 266 -369 322 -586 66 -254 97
-513 104 -864 8 -380 -30 -626 -125 -803 -27 -51 -40 -57 -21 -11 22 57 49
160 66 254 27 144 21 353 -23 899 -18 226 -63 498 -79 479 -1 -2 4 -46 12 -98
32 -223 43 -356 43 -546 0 -176 -19 -475 -35 -542 -4 -15 -2 -21 5 -17 14 9
13 -8 -2 -24 -11 -11 -9 -11 12 -2 l25 12 -25 -22 c-16 -15 -19 -20 -7 -16 9
4 17 3 17 0 0 -4 -8 -16 -17 -27 -17 -20 -17 -20 0 -7 16 13 17 12 7 -13 -5
-14 -12 -37 -14 -49 -25 -138 -156 -486 -222 -592 -18 -28 -54 -92 -81 -143
-27 -50 -52 -89 -56 -86 -6 6 -97 -114 -97 -128 0 -16 9 -7 37 37 15 25 33 47
39 49 11 4 11 -5 -6 -104 -42 -239 -27 -389 60 -623 21 -55 122 -220 161 -263
22 -23 33 -64 18 -64 -5 0 -9 3 -9 8 0 4 -17 15 -38 25 -20 10 -68 37 -107 60
-68 41 -71 45 -117 137 -27 52 -55 122 -63 155 -20 80 -45 282 -45 370 -1 96
42 311 107 550 64 229 63 226 96 360 22 88 37 155 68 300 4 22 13 77 19 122 6
44 19 116 30 159 11 42 20 89 19 103 0 14 -11 -15 -24 -65 -12 -50 -32 -109
-44 -131 -29 -58 -115 -158 -150 -176 l-29 -14 36 46 c65 85 105 206 120 361
6 69 9 76 35 88 l29 14 -25 26 c-24 26 -25 35 -31 192 -16 380 -82 703 -184
890 -120 222 -230 325 -469 440 -35 17 -63 35 -63 40 0 14 39 29 130 50 100
24 129 24 208 -2z m1342 -38 c-20 -13 -33 -13 -25 0 3 6 14 10 23 10 15 0 15
-2 2 -10z m-2914 -25 c93 -31 130 -50 240 -121 l87 -56 -124 -65 c-129 -67
-150 -81 -110 -68 20 6 23 5 17 -10 -5 -15 -4 -16 8 -6 8 7 16 8 18 2 2 -6 18
-4 40 3 26 9 40 10 47 3 8 -8 11 -8 11 0 0 6 9 9 20 6 11 -3 20 -9 20 -13 0
-4 -9 -15 -20 -25 -11 -10 -20 -13 -20 -7 0 7 -14 4 -35 -8 -20 -11 -42 -20
-50 -20 -8 0 -25 -12 -38 -26 -37 -44 -69 -54 -166 -54 -57 0 -92 4 -97 12
-16 25 -33 137 -34 214 0 83 26 194 56 242 18 28 38 28 130 -3z m1174 5 c0 -5
-5 -10 -11 -10 -5 0 -7 5 -4 10 3 6 8 10 11 10 2 0 4 -4 4 -10z m1710 -10 c0
-5 -5 -10 -11 -10 -5 0 -7 5 -4 10 3 6 8 10 11 10 2 0 4 -4 4 -10z m33 -14 c4
-10 1 -13 -9 -9 -15 6 -19 23 -5 23 5 0 11 -7 14 -14z m-1849 -8 c-5 -9 -2 -9
9 1 15 12 17 11 17 -3 0 -10 13 -21 30 -27 34 -12 32 -6 30 -119 -1 -47 3 -96
9 -110 7 -19 10 -2 10 78 1 56 5 102 9 102 20 0 62 -50 108 -127 27 -45 52
-83 56 -83 12 0 -95 170 -136 216 -21 25 -36 48 -32 51 10 10 90 -14 154 -45
67 -32 180 -140 244 -232 53 -75 133 -233 173 -338 52 -138 106 -368 125 -527
6 -55 13 -110 16 -122 2 -13 -1 -23 -7 -23 -17 0 -91 55 -129 96 -41 45 -120
156 -120 168 0 5 18 6 39 2 23 -3 42 -2 46 4 7 11 -68 49 -97 50 -10 0 -26 16
-37 38 -25 50 -87 243 -102 317 -12 62 -39 148 -45 142 -2 -2 3 -41 11 -88 19
-106 20 -100 -12 -95 -27 5 -27 5 -8 -11 14 -10 16 -17 8 -20 -21 -8 -15 -26
7 -20 21 5 29 -18 8 -25 -6 -2 -13 -29 -16 -61 -5 -67 5 -150 19 -142 5 4 9
-1 9 -9 0 -9 -8 -16 -17 -16 -28 -1 -89 -34 -83 -45 3 -6 26 -8 53 -7 56 4 54
10 27 -123 -22 -108 -43 -162 -91 -232 -28 -42 -29 -45 -7 -25 43 39 107 181
131 291 22 98 23 100 49 98 39 -3 39 15 0 33 -29 13 -32 19 -27 44 3 16 5 43
5 60 0 26 8 15 48 -64 118 -236 176 -307 300 -366 l72 -35 0 -56 0 -55 -34 34
c-19 19 -63 50 -98 69 -58 31 -70 34 -148 34 -90 0 -127 -12 -184 -58 -24 -19
-30 -33 -32 -71 -3 -43 7 -59 21 -36 3 5 15 15 26 21 19 9 19 9 10 -10 -15
-28 -14 -33 8 -26 22 7 34 -6 25 -29 -8 -22 -44 -21 -44 2 -1 16 -1 15 -11 -2
-16 -26 -2 -143 23 -191 60 -120 177 -148 266 -65 17 17 32 36 32 42 0 6 -9 0
-21 -13 -33 -39 -72 -59 -112 -59 -44 0 -95 20 -119 46 -21 24 -34 74 -19 74
5 0 20 10 32 23 17 17 20 18 16 5 -9 -26 19 -36 86 -31 37 3 63 1 72 -7 13
-10 19 -9 36 6 20 18 21 18 31 1 15 -28 35 -4 49 58 11 48 10 61 -8 110 -21
56 -18 69 9 38 30 -34 48 -82 48 -128 0 -25 5 -45 10 -45 6 0 10 5 10 10 0 6
5 10 10 10 13 0 7 -38 -22 -154 -35 -142 -91 -226 -181 -271 l-52 -26 50 6
c50 5 155 49 155 65 0 4 6 10 14 13 29 11 -4 -51 -54 -101 -90 -92 -245 -175
-457 -244 -109 -35 -115 -35 -340 22 -202 52 -318 121 -369 222 -30 59 -30 68
-1 68 37 0 40 12 8 26 -33 14 -79 77 -105 144 -10 25 -33 73 -52 107 -43 77
-43 90 -1 50 l32 -32 6 71 c5 69 23 110 64 144 20 16 19 6 -2 -26 -27 -42 -21
-127 14 -205 37 -80 50 -91 64 -51 13 37 44 55 33 19 l-6 -22 24 23 c28 26 38
28 38 7 0 -8 6 -15 13 -15 15 0 46 20 32 20 -5 0 -2 5 8 11 13 8 22 7 34 -3
15 -11 16 -10 11 10 -7 24 3 28 34 11 11 -6 22 -9 24 -7 9 10 -19 126 -41 168
-13 25 -31 62 -40 82 -21 49 -85 87 -160 95 l-55 6 0 95 c0 130 16 219 41 227
22 7 25 30 5 38 -16 6 -9 55 23 152 l20 60 1 -50 c0 -57 23 -192 46 -280 34
-127 145 -313 205 -345 12 -7 20 -8 18 -3 -2 4 -25 51 -51 103 -25 52 -49 111
-52 130 l-6 35 17 -24 c94 -129 136 -172 206 -206 75 -37 156 -58 143 -37 -4
7 -16 12 -27 12 -35 0 -131 53 -185 103 -50 46 -132 162 -167 238 -25 55 -49
157 -52 219 -1 30 -5 63 -10 73 -4 10 -5 45 -2 77 4 46 2 57 -8 54 -22 -9 -25
-46 -11 -129 8 -44 20 -122 26 -173 10 -91 60 -294 81 -334 6 -11 9 -22 6 -24
-2 -2 -18 22 -35 53 -78 147 -118 357 -108 562 3 69 10 127 15 131 6 3 11 39
12 79 3 121 80 356 148 454 45 66 167 179 135 125z m1816 -8 c0 -5 -2 -10 -4
-10 -3 0 -8 5 -11 10 -3 6 -1 10 4 10 6 0 11 -4 11 -10z m-760 -48 c62 -16 66
-19 92 -67 19 -37 26 -63 25 -98 -2 -46 -3 -48 -40 -58 -21 -5 -44 -12 -52
-15 -8 -3 -28 17 -52 53 -21 32 -68 89 -105 127 -38 38 -68 71 -68 72 0 11
144 0 200 -14z m720 -18 c0 -8 -4 -12 -10 -9 -5 3 -10 10 -10 16 0 5 5 9 10 9
6 0 10 -7 10 -16z m5 -53 c-3 -3 5 -11 17 -18 13 -7 18 -12 12 -13 -7 0 -22 8
-34 18 -18 15 -20 19 -7 19 10 0 15 -3 12 -6z m-25 -41 c-8 -5 -19 -6 -24 -3
-6 4 -6 8 1 10 7 3 9 12 5 21 -5 15 -3 15 13 -1 15 -15 16 -20 5 -27z m94 -9
c4 -5 -3 -7 -14 -4 -23 6 -26 13 -6 13 8 0 17 -4 20 -9z m66 -11 c0 -5 -2 -10
-4 -10 -3 0 -8 5 -11 10 -3 6 -1 10 4 10 6 0 11 -4 11 -10z m-654 -127 c-2
-52 -25 -108 -64 -162 l-25 -34 -44 93 c-24 51 -42 94 -41 96 4 3 161 53 169
54 3 0 5 -21 5 -47z m-2065 -46 c-8 -8 -11 -7 -11 4 0 20 13 34 18 19 3 -7 -1
-17 -7 -23z m2256 -38 c8 -8 21 -8 47 1 38 12 62 5 87 -27 13 -17 12 -17 -6
-2 -32 26 -42 29 -42 14 0 -8 4 -12 8 -10 4 3 9 -2 12 -10 3 -7 22 -17 42 -21
20 -3 61 -27 94 -53 93 -74 306 -281 290 -281 -8 0 -68 7 -133 16 -65 8 -120
13 -123 10 -3 -2 -16 -42 -29 -87 -13 -46 -29 -88 -34 -93 -32 -32 -248 309
-316 498 -18 48 -13 55 14 21 13 -16 26 -24 33 -19 8 4 9 3 5 -4 -4 -7 5 -22
21 -36 36 -31 39 -27 14 15 -33 54 -21 105 16 68z m440 -17 c27 -17 131 -302
121 -332 -2 -6 -57 40 -123 103 l-119 113 23 45 c38 74 64 93 98 71z m-2806
-56 c-9 -11 -9 -15 1 -19 7 -2 1 -4 -14 -3 l-28 1 23 17 c27 21 33 23 18 4z
m-62 -53 c-12 -15 -12 -16 3 -10 12 4 15 2 11 -9 -3 -8 -12 -13 -19 -10 -16 6
-19 -10 -4 -19 6 -4 8 -11 4 -16 -3 -5 0 -25 6 -44 10 -31 7 -47 -28 -148 -22
-62 -43 -134 -47 -160 -4 -26 -10 -45 -14 -42 -4 2 -13 36 -20 75 -7 38 -16
72 -19 74 -4 2 -41 -2 -82 -10 -86 -15 -160 -18 -160 -5 0 10 150 154 205 196
21 17 43 35 49 41 6 5 35 31 64 57 53 48 76 61 51 30z m2647 -489 l27 7 -7
-508 c-3 -298 -11 -543 -18 -593 -6 -47 -12 -179 -12 -295 -1 -172 3 -237 22
-360 30 -198 74 -357 137 -500 7 -16 25 -56 39 -87 14 -32 22 -58 18 -58 -4 0
0 -5 8 -11 12 -8 12 -10 1 -7 -8 2 -15 12 -17 23 -1 10 -7 21 -12 24 -33 22
-138 274 -172 416 -51 211 -58 315 -75 1045 -8 326 -23 767 -31 875 l-6 90 35
-34 c29 -27 41 -32 63 -27z m-2117 -151 c-5 -32 -11 -93 -15 -135 -3 -43 -9
-78 -14 -78 -14 0 -72 144 -73 184 -2 39 0 42 43 64 65 32 68 31 59 -35z
m-156 -3 c-5 -25 -3 -29 11 -24 12 4 16 0 16 -15 0 -28 53 -153 81 -193 21
-29 21 -30 3 -43 -45 -31 -65 -53 -97 -107 l-34 -57 -7 46 c-13 98 -2 338 20
405 9 29 14 21 7 -12z m1187 -401 c8 -14 19 -19 37 -17 37 4 39 -17 3 -32 -16
-7 -30 -18 -30 -26 0 -27 -21 -24 -55 10 -40 41 -42 46 -16 46 11 0 23 9 26
20 8 26 21 25 35 -1z m-1012 -61 c-4 -29 -38 -38 -38 -10 0 22 8 32 27 32 9 0
13 -8 11 -22z m1779 -75 c-2 -21 -4 -6 -4 32 0 39 2 55 4 38 2 -18 2 -50 0
-70z m-1653 42 c4 -11 13 -14 31 -9 28 7 33 -7 10 -26 -8 -7 -15 -23 -15 -36
0 -34 -16 -38 -38 -9 -11 14 -30 25 -43 25 l-24 0 21 18 c12 9 24 25 27 35 8
21 23 22 31 2z m1196 -294 c0 -35 -36 -153 -61 -201 -10 -19 -30 -48 -44 -65
l-26 -30 14 30 c19 39 45 116 63 185 27 101 54 142 54 81z m-1390 -66 c16 -8
32 -32 45 -65 55 -143 213 -235 510 -295 67 -14 125 -25 127 -25 3 0 9 -27 12
-61 8 -72 4 -80 -73 -119 -80 -40 -155 -60 -228 -60 -35 0 -106 -11 -159 -25
-53 -14 -100 -23 -104 -20 -5 3 -11 19 -15 35 -10 47 -48 70 -117 70 -54 0
-59 2 -68 26 -6 14 -10 41 -10 59 l0 34 35 -15 c19 -7 49 -14 66 -14 l32 0
-39 28 c-21 16 -44 35 -50 43 -6 8 -14 73 -18 144 -4 72 -9 165 -13 209 l-6
78 24 -7 c13 -4 35 -13 49 -20z m1716 -48 c-18 -179 -109 -426 -167 -458 -24
-12 -36 -5 -22 13 25 33 123 313 144 413 14 70 25 95 41 95 7 0 9 -20 4 -63z
m494 -100 c0 -56 53 -420 85 -593 35 -186 119 -528 156 -637 17 -49 28 -91 25
-94 -9 -10 -69 84 -121 192 -91 190 -147 395 -176 645 -11 102 -7 432 7 507 8
45 24 31 24 -20z m-920 19 c-36 -96 -98 -192 -147 -228 -20 -16 -31 -28 -23
-28 7 0 57 44 111 99 116 115 116 114 68 -68 -48 -184 -60 -221 -70 -221 -19
0 -98 60 -120 91 -18 25 -22 49 -26 134 l-6 103 85 55 c47 31 91 63 98 72 21
25 41 19 30 -9z m-1760 -15 c0 -10 16 -67 35 -127 19 -59 35 -112 35 -117 0
-16 -28 13 -59 62 -28 43 -31 55 -31 130 0 52 4 80 10 76 6 -3 10 -14 10 -24z
m3291 -246 c50 -127 101 -259 114 -295 13 -36 38 -103 55 -150 45 -123 96
-319 117 -445 14 -86 18 -166 18 -365 0 -246 -6 -317 -24 -305 -13 8 -113 324
-150 475 -52 213 -164 809 -212 1130 -11 74 -23 151 -26 170 -11 69 16 14 108
-215z m-1769 33 c6 -111 25 -147 105 -205 43 -31 63 -51 60 -62 -2 -9 -23 -96
-48 -194 -51 -206 -49 -205 -154 -168 -74 26 -204 33 -229 12 -13 -11 -22 -10
-53 5 -47 23 -181 31 -222 14 -24 -10 -35 -9 -62 6 -23 12 -58 18 -106 18
l-71 1 49 95 c27 52 64 116 83 141 30 40 41 47 102 64 38 10 93 30 122 44 43
21 55 23 61 12 14 -22 32 22 33 79 l0 49 71 35 c40 19 108 57 152 85 44 28 85
50 91 51 7 0 13 -30 16 -82z m-1501 -10 c11 -21 11 -22 -4 -9 -10 7 -17 17
-17 22 0 15 9 10 21 -13z m3177 -79 c-3 -8 -7 -3 -11 10 -4 17 -3 21 5 13 5
-5 8 -16 6 -23z m-2689 -135 c2 -2 1 -10 -2 -19 -6 -13 -45 -15 -303 -15 -232
0 -295 3 -292 13 10 29 49 33 319 29 151 -2 276 -6 278 -8z m-91 -52 c56 -5
86 -12 92 -22 19 -31 135 -439 127 -447 -2 -2 -30 3 -63 12 -112 29 -185 15
-170 -33 8 -24 34 -38 135 -71 46 -14 82 -31 82 -36 0 -6 -48 -13 -107 -16
-77 -5 -110 -11 -122 -22 -30 -31 20 -65 121 -82 40 -6 42 -25 3 -25 -13 0
-29 -7 -36 -15 -10 -13 -10 -19 5 -35 21 -23 61 -36 138 -45 62 -7 79 -21 97
-85 l9 -32 -257 4 c-141 3 -265 8 -274 13 -16 6 -48 88 -48 120 0 6 24 22 52
36 39 18 55 33 63 54 5 17 19 38 30 48 20 17 20 17 -4 37 -13 11 -31 20 -40
20 -9 0 -2 8 17 20 19 11 32 26 29 33 -7 21 -89 56 -172 72 -44 9 -80 17 -81
18 -5 5 -64 227 -69 260 -3 20 -15 46 -26 56 -15 14 -56 133 -59 169 0 5 451
0 528 -6z m184 -172 c-6 -15 -9 -8 -38 98 -24 90 -14 92 15 2 16 -47 26 -92
23 -100z m279 156 c-6 -8 -33 -17 -59 -21 -26 -4 -55 -14 -65 -22 -24 -22 -33
-9 -14 21 17 25 39 32 111 35 32 1 36 -1 27 -13z m-982 -87 c12 -36 19 -74 15
-85 -7 -19 -6 -19 8 0 14 18 16 18 26 -14 13 -36 14 -110 3 -150 -7 -24 27
-101 50 -115 17 -11 9 -26 -23 -41 l-33 -15 45 8 c67 11 125 6 194 -17 86 -29
96 -36 71 -56 -16 -13 -36 -14 -105 -9 -62 4 -96 2 -125 -8 l-40 -14 75 0 c66
0 215 -24 228 -37 2 -3 -3 -13 -13 -22 -19 -19 -82 -32 -160 -34 -27 0 -61 -8
-75 -16 l-25 -15 25 7 c14 3 65 9 114 11 112 6 112 -8 -2 -57 -44 -19 -87 -41
-94 -49 -11 -12 -10 -13 7 -6 45 18 60 12 63 -25 2 -30 -3 -42 -33 -73 -37
-38 -38 -45 -4 -26 19 10 20 7 17 -78 l-3 -88 -65 -2 c-74 -3 -172 30 -178 59
-2 9 11 63 29 120 32 102 32 103 45 72 7 -17 21 -37 30 -45 13 -10 9 1 -10 35
-20 33 -32 75 -41 135 -7 47 -13 76 -14 64 -1 -15 -18 -33 -53 -56 -29 -19
-69 -52 -88 -73 l-35 -38 46 41 c41 37 98 73 114 73 3 0 5 -4 5 -10 0 -5 -6
-10 -13 -10 -7 0 -39 -25 -70 -56 -51 -51 -57 -60 -57 -98 1 -36 9 -69 35
-130 7 -16 6 -17 -13 -7 -21 11 -21 11 -17 -106 2 -75 1 -102 -4 -73 -4 25
-13 58 -19 73 -7 16 -12 55 -12 88 l0 59 -22 -22 -23 -23 -3 26 c-7 61 72 504
137 764 16 66 35 148 42 182 7 35 16 60 20 55 3 -4 16 -37 28 -73z m821 62 c0
-6 -17 -38 -37 -73 l-37 -63 -12 31 c-7 17 -14 44 -16 60 -3 25 2 30 32 41 43
15 70 16 70 4z m78 -35 c-7 -8 -17 -12 -22 -9 -4 3 -2 9 5 14 22 13 31 11 17
-5z m-43 -18 c-5 -18 -4 -19 4 -8 5 8 13 11 17 7 4 -4 13 -2 21 5 7 6 16 8 20
4 3 -3 1 -6 -6 -6 -7 0 -10 -4 -7 -9 4 -6 -63 -149 -78 -168 -1 -1 -14 13 -29
32 l-28 35 22 50 c12 28 31 57 43 65 27 20 28 19 21 -7z m-25 -223 c125 -137
186 -226 265 -389 31 -64 75 -139 98 -168 37 -46 42 -59 41 -99 -2 -44 -33
-120 -68 -164 -18 -23 -5 -33 -113 92 -25 30 -63 61 -86 71 -25 11 -61 41 -86
71 -54 64 -84 80 -175 93 -70 10 -106 22 -106 36 0 4 45 16 100 26 56 10 99
21 96 23 -3 3 -47 12 -98 19 -151 22 -211 43 -179 64 7 4 65 10 129 13 64 3
130 10 146 15 29 8 28 8 -30 29 -216 76 -251 94 -237 115 7 13 127 2 203 -18
69 -18 130 -18 130 -1 0 7 -17 40 -38 73 -44 68 -82 157 -81 188 0 20 1 20 17
-4 9 -14 42 -52 72 -85z m1134 83 c11 -15 12 -25 5 -34 -6 -7 -8 -18 -4 -24 3
-5 1 -10 -4 -10 -6 0 -11 -8 -11 -19 0 -16 -23 -82 -53 -151 -10 -25 -13 -33
-16 -47 -1 -5 -5 -3 -9 4 -9 15 -16 -61 -15 -164 1 -46 -2 -83 -7 -83 -18 0
-35 111 -21 136 5 11 15 66 21 124 12 115 31 195 45 183 4 -4 5 -3 1 4 -7 13
13 63 26 63 5 0 6 5 3 10 -7 12 2 30 15 30 5 0 16 -10 24 -22z m-975 -89 c17
-6 31 -15 31 -20 0 -5 9 -9 20 -9 16 0 20 -7 21 -37 l1 -38 11 45 12 45 78 3
c63 2 87 -1 121 -18 47 -22 72 -25 81 -10 11 17 156 11 205 -9 43 -18 45 -21
45 -60 0 -52 9 -52 27 1 15 47 38 63 38 26 -1 -12 -7 -45 -14 -73 -12 -43 -17
-50 -37 -48 -52 6 -70 15 -79 38 -14 38 -53 48 -163 42 -78 -4 -109 -10 -151
-31 -68 -33 -81 -33 -130 7 -47 38 -126 77 -156 77 -19 0 -90 58 -90 74 0 10
95 7 129 -5z m-892 -109 c-1 -8 -10 7 -20 34 -9 27 -14 54 -10 60 8 12 35 -71
30 -94z m686 -18 c4 -18 3 -31 -2 -28 -4 3 -11 20 -14 38 -3 18 -8 42 -12 53
-4 13 -1 11 8 -5 8 -14 17 -40 20 -58z m-1056 26 c-3 -8 -6 -5 -6 6 -1 11 2
17 5 13 3 -3 4 -12 1 -19z m1340 -55 c42 -32 44 -56 6 -47 -40 10 -58 25 -41
35 9 6 8 9 -6 9 -20 0 -66 36 -66 51 0 12 69 -19 107 -48z m-1296 17 c12 0 19
-7 19 -20 0 -11 -4 -20 -10 -20 -5 0 -10 -18 -10 -40 0 -34 -4 -41 -25 -46
-35 -9 -31 -23 5 -18 17 3 30 1 30 -5 0 -6 -6 -11 -12 -11 -7 -1 -2 -7 12 -14
14 -8 29 -12 35 -9 6 4 6 2 2 -3 -5 -5 -33 -9 -63 -9 -59 0 -54 -4 -69 68 -2
9 1 15 5 12 8 -5 12 8 25 88 5 29 10 37 21 33 9 -3 24 -6 35 -6z m1742 -18
c10 -9 12 -22 7 -50 -23 -120 -81 -286 -102 -290 -38 -8 -218 141 -218 181 0
21 -1 21 60 -3 87 -34 119 -21 99 41 -15 44 -10 41 -81 54 -34 6 -63 16 -65
21 -2 6 18 19 44 30 78 30 227 40 256 16z m-1707 -19 c-5 -15 -4 -15 9 1 19
25 19 18 -1 -29 -8 -20 -10 -34 -5 -30 6 3 11 2 11 -3 0 -6 -7 -12 -15 -16
-12 -4 -15 2 -15 28 0 35 8 66 17 66 3 0 2 -8 -1 -17z m1370 -79 c-7 -53 -12
-64 -30 -64 -28 0 -38 26 -26 69 9 35 15 41 37 41 25 0 26 -2 19 -46z m464 19
c0 -12 -8 -14 -41 -10 -44 6 -54 11 -46 24 10 15 87 2 87 -14z m-1 -39 c2 -2
-3 -27 -10 -56 -15 -55 -18 -261 -5 -311 l7 -28 -32 17 c-31 16 -69 15 -140
-1 -20 -5 -32 1 -61 30 -32 34 -66 110 -54 122 2 3 15 -2 28 -11 27 -19 72
-21 86 -3 13 15 62 165 62 189 0 9 4 28 9 41 9 23 14 24 58 20 26 -3 50 -7 52
-9z m34 -121 c8 -147 28 -261 61 -344 14 -35 20 -55 13 -45 -7 11 -29 39 -50
62 -21 23 -43 57 -48 76 -19 59 -10 368 11 368 4 0 10 -53 13 -117z m-1893 46
c0 -6 6 -9 14 -6 9 4 12 -2 11 -18 -6 -49 -15 -62 -41 -59 -24 2 -25 2 -22
-67 2 -38 0 -69 -4 -69 -5 0 -8 3 -9 8 -8 100 -6 208 4 214 18 11 47 9 47 -3z
m1370 -31 c0 7 4 12 9 12 12 0 24 -81 13 -92 -12 -12 -52 52 -52 83 1 23 1 23
15 5 8 -11 15 -14 15 -8z m1830 -93 c0 -8 -2 -15 -4 -15 -2 0 -6 7 -10 15 -3
8 -1 15 4 15 6 0 10 -7 10 -15z m-3313 -29 c-4 -9 -11 -16 -17 -16 -11 0 -14
33 -3 44 11 10 26 -11 20 -28z m1547 -12 c3 -8 2 -12 -4 -9 -6 3 -10 10 -10
16 0 14 7 11 14 -7z m-1469 -66 c16 -7 24 -17 20 -27 -2 -9 -7 -42 -9 -73 -5
-61 -12 -82 -26 -73 -5 3 -12 0 -16 -6 -5 -8 -3 -9 7 -4 11 6 12 5 2 -5 -10
-11 -15 -11 -27 0 -15 12 -13 35 2 26 4 -2 8 10 9 27 1 17 6 33 10 36 5 3 9
20 10 36 2 22 0 26 -7 15 -10 -16 -12 -11 -14 33 -2 30 2 32 39 15z m1605 -40
c0 -6 -6 -5 -15 2 -8 7 -15 14 -15 16 0 2 7 1 15 -2 8 -4 15 -11 15 -16z m-48
-18 c16 -15 25 -17 35 -8 11 8 12 7 7 -6 -4 -11 7 -30 35 -58 37 -36 41 -45
35 -72 -3 -17 -10 -35 -14 -39 -21 -23 -133 75 -124 108 4 16 3 17 -5 5 -16
-24 -23 -5 -16 44 8 51 16 55 47 26z m1048 -109 l0 -36 -29 51 c-45 82 -46 93
-7 55 28 -27 36 -43 36 -70z m-1820 84 c0 -3 -5 -14 -12 -24 -9 -15 -16 -17
-30 -10 -14 8 -16 6 -11 -8 4 -10 11 -21 16 -25 7 -4 6 -17 -3 -37 l-13 -31
-46 26 -46 27 38 -40 c37 -39 44 -66 28 -107 -7 -18 -9 -16 -19 13 -7 19 -25
54 -40 80 -19 30 -29 62 -31 94 l-2 47 86 0 c47 0 85 -2 85 -5z m160 -11 c0
-51 -172 -339 -219 -368 -27 -17 -6 107 50 287 l30 97 69 0 c58 0 70 -3 70
-16z m127 2 c3 -2 -30 -94 -67 -186 -65 -165 -228 -400 -292 -423 -21 -8 -21
-9 -6 107 11 87 14 94 63 156 88 110 175 252 175 284 0 6 9 26 21 45 19 32 22
33 62 27 23 -4 42 -8 44 -10z m756 2 c63 -19 140 -101 188 -202 23 -46 49 -92
60 -102 19 -17 19 -16 3 15 -9 18 -14 34 -12 36 2 3 20 -6 39 -19 19 -12 68
-41 109 -62 73 -38 76 -42 113 -114 20 -41 48 -109 62 -150 26 -82 33 -77 10
9 -8 30 -12 58 -9 63 3 4 1 8 -4 8 -6 0 -15 14 -21 30 -5 17 -7 30 -2 30 13 0
92 -184 112 -261 18 -68 29 -96 29 -71 0 20 -48 187 -69 240 -23 57 -20 64 13
29 11 -12 42 -39 68 -60 40 -33 45 -41 36 -56 -7 -12 -8 -27 -1 -47 9 -24 6
-36 -16 -74 -14 -25 -29 -46 -33 -48 -4 -2 -8 -11 -8 -20 0 -28 -46 -116 -80
-156 -76 -86 -375 -177 -478 -146 -60 19 -194 72 -232 93 -105 57 -286 236
-337 334 -48 91 -58 271 -11 204 17 -25 81 -51 124 -51 90 0 159 63 225 206
36 77 39 92 39 170 0 63 -5 95 -19 124 l-19 40 31 9 c44 13 44 13 90 -1z
m-1756 -168 c10 -109 10 -110 54 -167 78 -99 167 -124 299 -82 96 30 131 64
159 153 11 37 21 79 21 92 0 13 4 24 8 24 10 0 45 -69 61 -119 13 -41 14 -177
2 -252 -5 -30 -15 -94 -21 -144 -16 -120 -46 -241 -68 -279 -75 -129 -373
-177 -568 -91 -96 43 -148 123 -205 318 l-23 78 18 72 c10 40 44 131 76 202
31 72 65 152 75 179 16 45 77 126 95 126 4 0 12 -49 17 -110z m1426 80 c-3
-11 -1 -20 3 -21 52 -4 99 -47 91 -81 -3 -11 1 -22 9 -25 8 -3 12 -9 9 -13 -3
-4 2 -10 10 -14 8 -3 15 -16 15 -30 0 -21 -6 -24 -57 -32 -32 -4 -65 -6 -73
-5 -19 3 -62 54 -51 61 4 3 11 14 15 24 10 30 -15 38 -37 13 -10 -12 -22 -22
-27 -22 -5 0 -17 -9 -27 -21 -19 -21 -85 -64 -98 -64 -4 0 12 14 36 31 56 41
100 89 145 162 38 61 45 68 37 37z m1018 -4 c15 -13 31 -32 37 -43 10 -18 7
-18 -40 5 -39 19 -53 21 -62 11 -8 -9 -8 -10 2 -5 6 4 12 3 12 -2 0 -6 -7 -12
-15 -16 -8 -3 -15 -11 -15 -18 0 -9 3 -8 10 2 11 17 11 17 15 -27 1 -18 -1
-33 -4 -33 -4 0 -7 -9 -8 -20 -1 -11 2 -18 7 -15 6 3 7 -1 4 -9 -3 -9 -11 -16
-16 -16 -6 0 -8 -9 -5 -20 3 -10 0 -22 -7 -25 -6 -3 5 -3 24 0 28 4 32 3 17
-6 -11 -6 -29 -9 -42 -6 -17 3 -25 -1 -28 -12 -2 -9 -4 14 -5 51 -1 37 3 80
10 95 6 16 17 42 24 60 8 17 14 37 14 45 0 35 34 37 71 4z m-2281 -40 c27 -16
38 -26 27 -26 -22 0 -107 59 -107 73 0 6 8 3 18 -6 9 -8 37 -27 62 -41z m179
-37 c23 -1 22 -2 -7 -9 -41 -9 -112 -1 -112 13 0 6 18 7 46 3 26 -3 59 -6 73
-7z m731 -81 c0 -33 6 -49 26 -67 14 -13 21 -27 17 -31 -40 -37 -113 6 -113
66 0 36 28 74 55 74 11 0 15 -11 15 -42z m1479 -70 c9 -23 31 -224 31 -286 0
-40 -11 -36 -100 29 -93 68 -138 118 -138 154 0 27 5 33 44 49 24 10 63 31 86
47 52 35 66 36 77 7z m388 -145 c140 -139 153 -154 202 -252 41 -81 54 -117
58 -165 l6 -61 -25 25 c-36 37 -168 153 -234 207 -33 26 -61 50 -64 53 -3 3
-35 31 -72 63 -74 64 -108 109 -89 115 21 7 41 60 41 112 0 36 4 50 14 50 8 0
81 -66 163 -147z m-299 29 c28 -38 101 -115 162 -172 82 -76 119 -119 139
-159 44 -87 65 -161 65 -228 0 -52 -4 -67 -24 -88 -49 -52 -143 -42 -206 23
l-35 37 3 -39 c4 -56 -15 -55 -53 1 -18 26 -73 99 -122 161 -89 113 -89 113
-76 145 8 18 14 52 14 77 0 35 3 44 15 41 8 -2 30 -6 49 -9 l34 -5 -7 99 c-3
55 -9 118 -12 142 -3 23 -4 42 -1 42 2 0 27 -31 55 -68z m400 -412 c3 -8 0
-10 -8 -5 -8 5 -11 4 -6 -3 4 -6 13 -9 21 -5 11 4 13 1 9 -12 -7 -17 10 -35
31 -35 6 0 3 4 -5 10 -8 5 -11 12 -7 16 4 5 19 -3 33 -17 72 -69 74 -73 63
-80 -8 -5 -7 -8 2 -13 12 -5 12 -7 0 -12 -11 -5 -11 -8 0 -15 11 -6 10 -11 -4
-27 -9 -10 -14 -22 -10 -27 5 -4 -2 -3 -13 3 -12 6 -24 8 -28 5 -3 -3 -6 -2
-7 3 0 5 -2 17 -4 27 -2 9 1 15 6 11 5 -3 7 -10 4 -15 -4 -5 -4 -9 -1 -9 2 0
11 -3 19 -6 8 -3 17 2 21 12 4 11 2 15 -7 11 -7 -3 -19 4 -26 14 -6 11 -17 17
-23 13 -7 -5 -9 0 -6 14 4 12 0 26 -8 33 -10 9 -14 9 -14 0 0 -7 -9 -6 -25 5
-14 9 -25 21 -25 26 0 7 4 7 13 1 17 -14 66 -22 73 -12 3 5 -6 9 -20 9 -15 0
-33 11 -45 26 -12 15 -21 23 -21 18 -1 -10 -29 37 -30 48 0 13 44 2 48 -12z
m-563 -11 c-2 -12 -9 -27 -15 -34 -6 -7 -8 -21 -4 -31 5 -16 4 -17 -6 -4 -10
13 -11 11 -7 -7 3 -14 1 -20 -7 -17 -15 6 -17 34 -3 34 5 0 7 6 4 13 -5 15 20
67 33 67 5 0 7 -9 5 -21z m-82 -124 c-3 -9 -8 -14 -10 -11 -3 3 -2 9 2 15 9
16 15 13 8 -4z m-2656 -17 c-3 -8 -6 -5 -6 6 -1 11 2 17 5 13 3 -3 4 -12 1
-19z m3333 7 c0 -8 -4 -15 -10 -15 -5 0 -10 7 -10 15 0 8 5 15 10 15 6 0 10
-7 10 -15z m-654 -15 c0 -12 -4 -16 -9 -11 -5 5 -6 14 -3 20 10 15 12 14 12
-9z m73 -14 c-1 -16 -2 -17 -6 -3 -2 9 -9 17 -14 17 -5 0 -9 4 -9 10 0 5 7 7
15 4 8 -4 14 -16 14 -28z m-2797 -6 c19 0 20 -4 14 -42 -7 -40 -21 -68 -35
-68 -9 0 -32 53 -25 59 3 3 9 -1 14 -9 6 -8 10 -10 10 -5 0 6 3 21 6 35 4 16
2 20 -3 13 -6 -9 -12 -7 -22 8 -7 12 -8 18 -2 14 6 -3 12 2 12 12 1 17 2 17 6
1 2 -10 14 -18 25 -18z m2692 4 c4 -10 -1 -22 -11 -30 -27 -20 -38 -17 -18 6
10 11 15 23 12 27 -4 3 -7 2 -7 -3 0 -5 -15 -18 -32 -28 l-33 -18 35 31 c41
35 46 37 54 15z m-2489 -32 c-3 -3 -11 0 -18 7 -9 10 -8 11 6 5 10 -3 15 -9
12 -12z m-278 -24 c-3 -8 -6 -5 -6 6 -1 11 2 17 5 13 3 -3 4 -12 1 -19z m2763
-13 c0 -1 -15 -2 -32 -2 -26 -1 -29 1 -13 7 17 6 45 3 45 -5z m755 -6 c-4 -5
-12 -9 -18 -8 -9 0 -8 2 1 6 6 2 9 10 6 15 -4 7 -2 8 5 4 6 -4 9 -12 6 -17z"/>
<path d="M4100 4860 c0 -5 5 -10 10 -10 6 0 10 5 10 10 0 6 -4 10 -10 10 -5 0
-10 -4 -10 -10z"/>
<path d="M2780 4839 c12 -9 11 -10 -8 -6 -12 3 -20 1 -16 -4 3 -5 11 -9 18 -9
7 0 25 -13 40 -29 16 -16 41 -35 57 -41 16 -7 29 -16 29 -21 0 -5 7 -9 15 -9
8 0 15 -4 15 -10 0 -5 5 -10 10 -10 17 0 128 -110 189 -186 32 -40 82 -122
112 -183 30 -61 57 -111 60 -111 11 0 -61 161 -105 235 -58 97 -293 326 -393
383 -28 15 -44 16 -23 1z m50 -35 c0 -2 -9 0 -20 6 -11 6 -20 13 -20 16 0 2 9
0 20 -6 11 -6 20 -13 20 -16z"/>
<path d="M2311 4384 c0 -11 3 -14 6 -6 3 7 2 16 -1 19 -3 4 -6 -2 -5 -13z"/>
<path d="M2305 4317 c-3 -12 -2 -34 4 -47 9 -22 10 -19 10 23 1 51 -5 61 -14
24z"/>
<path d="M2306 4025 c9 -203 25 -379 41 -448 18 -84 28 -82 13 3 -6 34 -13
121 -15 193 -6 189 -15 278 -29 271 -6 -3 -2 2 8 10 11 9 15 16 9 16 -5 0 -15
15 -21 33 -9 26 -10 10 -6 -78z"/>
<path d="M2371 3492 c-2 -27 23 -108 46 -147 13 -22 26 -48 30 -57 3 -10 11
-18 19 -18 9 0 4 15 -16 47 -34 53 -38 72 -13 52 16 -13 16 -12 0 11 -10 14
-22 42 -28 63 -5 21 -14 35 -19 32 -5 -3 -11 3 -13 12 -3 10 -5 12 -6 5z"/>
<path d="M2790 3080 c-12 -8 -10 -10 8 -10 13 0 20 4 17 10 -7 12 -6 12 -25 0z"/>
<path d="M2058 2969 c-28 -63 -101 -80 -175 -41 -12 7 -24 8 -27 3 -7 -11 66
-41 100 -41 59 0 131 58 121 98 -2 12 -8 6 -19 -19z"/>
<path d="M2321 2701 c-14 -25 -5 -48 23 -63 19 -10 20 -10 8 5 -16 18 -12 59
5 64 19 7 53 -34 46 -54 -5 -15 -4 -16 8 -5 12 11 11 17 -1 40 -20 35 -73 43
-89 13z"/>
<path d="M1247 2093 c-13 -13 -7 -57 24 -157 17 -56 38 -107 47 -114 10 -8 37
-12 67 -10 44 3 50 6 53 27 2 14 -1 41 -7 60 -6 20 -20 68 -32 106 -12 39 -26
76 -32 83 -10 12 -108 17 -120 5z m81 -61 c2 -7 -3 -12 -12 -12 -9 0 -16 7
-16 16 0 17 22 14 28 -4z m22 -77 c0 -8 -7 -15 -15 -15 -8 0 -15 7 -15 15 0 8
7 15 15 15 8 0 15 -7 15 -15z m21 -78 c-1 -12 -15 -9 -19 4 -3 6 1 10 8 8 6
-3 11 -8 11 -12z"/>
<path d="M1161 1914 c0 -11 3 -14 6 -6 3 7 2 16 -1 19 -3 4 -6 -2 -5 -13z"/>
<path d="M1143 1853 c-23 -75 -23 -77 -3 -34 11 25 19 51 18 59 -2 7 -8 -4
-15 -25z"/>
<path d="M1150 1704 c17 -27 21 -45 17 -77 -4 -27 -2 -36 4 -26 15 24 10 72
-11 107 -11 17 -22 32 -26 32 -3 0 4 -16 16 -36z"/>
<path d="M973 1200 c0 -30 2 -43 4 -27 2 15 2 39 0 55 -2 15 -4 2 -4 -28z"/>
<path d="M2040 2030 c-9 -6 -10 -10 -3 -10 6 0 15 5 18 10 8 12 4 12 -15 0z"/>
<path d="M3099 1902 c6 -11 6 -24 0 -35 -14 -24 3 -21 19 3 7 12 8 20 2 20 -5
0 -10 7 -10 15 0 8 -5 15 -10 15 -7 0 -7 -6 -1 -18z"/>
<path d="M3020 1664 c0 -8 5 -12 10 -9 6 4 8 11 5 16 -9 14 -15 11 -15 -7z"/>
<path d="M864 1555 c-3 -8 -4 -20 -2 -27 3 -7 7 -1 10 15 6 29 1 36 -8 12z"/>
<path d="M2982 750 c0 -14 4 -36 8 -50 l8 -25 0 25 c0 14 -4 36 -8 50 l-8 25
0 -25z"/>
<path d="M3040 735 c0 -5 5 -17 10 -25 5 -8 10 -10 10 -5 0 6 -5 17 -10 25 -5
8 -10 11 -10 5z"/>
<path d="M3083 630 c11 -33 23 -58 25 -55 6 5 -28 104 -37 110 -5 2 1 -22 12
-55z"/>
<path d="M3002 650 c0 -14 2 -19 5 -12 2 6 2 18 0 25 -3 6 -5 1 -5 -13z"/>
<path d="M1500 480 c-12 -16 -19 -30 -16 -30 2 0 14 14 26 30 12 17 19 30 16
30 -2 0 -14 -13 -26 -30z"/>
<path d="M1375 348 l-70 -73 73 70 c67 64 77 75 69 75 -1 0 -34 -33 -72 -72z"/>
<path d="M2390 1021 c0 -6 4 -13 10 -16 6 -3 7 1 4 9 -7 18 -14 21 -14 7z"/>
<path d="M2386 987 c3 -10 9 -15 12 -12 3 3 0 11 -7 18 -10 9 -11 8 -5 -6z"/>
<path d="M3346 953 c-6 -14 -5 -15 5 -6 7 7 10 15 7 18 -3 3 -9 -2 -12 -12z"/>
<path d="M2025 870 c3 -5 8 -10 11 -10 2 0 4 5 4 10 0 6 -5 10 -11 10 -5 0 -7
-4 -4 -10z"/>
<path d="M4111 203 c7 -12 15 -20 18 -17 3 2 -3 12 -13 22 -17 16 -18 16 -5
-5z"/>
<path d="M4091 184 c0 -11 3 -14 6 -6 3 7 2 16 -1 19 -3 4 -6 -2 -5 -13z"/>
<path d="M4105 150 c3 -5 11 -10 16 -10 6 0 7 5 4 10 -3 6 -11 10 -16 10 -6 0
-7 -4 -4 -10z"/>
<path d="M2368 4993 c12 -2 32 -2 45 0 12 2 2 4 -23 4 -25 0 -35 -2 -22 -4z"/>
<path d="M2088 4863 c7 -3 16 -2 19 1 4 3 -2 6 -13 5 -11 0 -14 -3 -6 -6z"/>
<path d="M1986 4653 c-6 -14 -5 -15 5 -6 7 7 10 15 7 18 -3 3 -9 -2 -12 -12z"/>
<path d="M925 4255 c-10 -42 -15 -78 -13 -80 3 -3 12 30 21 72 9 42 15 78 13
81 -2 2 -12 -31 -21 -73z"/>
<path d="M4631 3883 c2 -29 60 -121 89 -142 34 -24 34 -24 -6 16 -26 26 -45
57 -54 87 -7 25 -17 46 -21 46 -5 0 -9 -3 -8 -7z"/>
<path d="M4216 3798 c9 -59 14 -60 14 -5 0 26 -5 47 -10 47 -6 0 -8 -16 -4
-42z"/>
<path d="M4238 3654 c-2 -22 0 -57 4 -79 4 -22 7 -75 8 -118 0 -43 5 -99 11
-124 l12 -45 14 33 c11 26 12 43 4 74 -6 22 -17 96 -26 164 -8 69 -17 126 -19
129 -3 2 -6 -13 -8 -34z"/>
<path d="M4673 3668 c-15 -20 -25 -38 -20 -38 3 0 12 11 21 25 17 26 16 35 -1
13z"/>
<path d="M4591 3604 c0 -11 3 -14 6 -6 3 7 2 16 -1 19 -3 4 -6 -2 -5 -13z"/>
<path d="M4631 3594 c-6 -15 -9 -29 -7 -32 3 -2 10 8 16 23 14 36 7 43 -9 9z"/>
<path d="M760 2888 c-43 -143 -67 -213 -155 -448 -139 -371 -177 -474 -192
-525 -8 -27 -24 -72 -34 -100 -28 -78 -56 -181 -78 -290 -40 -202 -43 -246
-38 -461 6 -223 16 -333 41 -435 42 -177 47 -208 44 -274 l-3 -70 -17 35
c-105 223 -129 323 -136 550 -4 172 3 263 33 405 75 352 195 793 318 1170 63
191 99 314 103 350 l3 30 -8 -30 c-5 -16 -19 -60 -30 -97 -12 -38 -29 -96 -40
-130 -10 -35 -44 -140 -75 -234 -180 -554 -269 -885 -312 -1159 -21 -138 -18
-400 6 -510 39 -175 94 -320 155 -404 23 -31 25 -43 25 -147 0 -74 4 -114 11
-114 7 0 8 85 3 278 -7 301 -1 408 42 731 14 101 23 185 21 187 -11 12 -77
-498 -77 -599 0 -59 -11 -99 -23 -81 -10 17 -45 200 -56 289 -53 457 6 788
254 1435 67 172 112 294 164 439 14 41 28 66 29 56 7 -35 -59 -461 -109 -701
-16 -78 -29 -148 -28 -155 3 -47 107 469 149 736 11 72 24 157 30 190 13 87
22 185 16 185 -3 0 -19 -46 -36 -102z"/>
<path d="M676 2939 c-8 -42 0 -50 9 -9 4 17 5 34 2 36 -2 3 -7 -10 -11 -27z"/>
<path d="M661 2878 c0 -9 -4 -25 -7 -35 -5 -17 -5 -17 6 0 6 10 9 25 7 35 -4
15 -5 15 -6 0z"/>
<path d="M585 1834 c-3 -16 -15 -66 -26 -111 -12 -46 -19 -88 -17 -94 2 -6 16
41 31 106 16 64 26 120 23 122 -3 3 -8 -8 -11 -23z"/>
<path d="M606 1755 c-3 -9 -6 -24 -5 -33 0 -9 5 -4 10 12 9 32 6 48 -5 21z"/>
<path d="M531 1594 c0 -11 3 -14 6 -6 3 7 2 16 -1 19 -3 4 -6 -2 -5 -13z"/>
<path d="M502 1473 c-26 -113 -36 -169 -29 -163 8 8 59 241 54 247 -3 2 -14
-35 -25 -84z"/>
<path d="M4544 1281 c1 -98 4 -177 9 -174 10 6 9 353 -1 353 -5 0 -8 -81 -8
-179z"/>
<path d="M455 1260 c-4 -23 -5 -43 -2 -46 2 -3 7 14 11 37 4 23 5 44 2 46 -2
2 -7 -14 -11 -37z"/>
<path d="M3630 1163 c-28 -19 -45 -38 -61 -68 -6 -11 6 -4 27 16 22 20 53 44
69 52 24 13 26 16 10 17 -11 0 -32 -8 -45 -17z"/>
<path d="M3230 1060 c0 -5 5 -10 10 -10 6 0 10 5 10 10 0 6 -4 10 -10 10 -5 0
-10 -4 -10 -10z"/>
<path d="M1855 693 c-9 -43 -26 -114 -36 -158 -10 -44 -32 -134 -49 -200 -17
-66 -35 -138 -40 -160 -5 -22 -16 -69 -24 -105 -13 -59 -14 -81 -1 -69 8 9
115 452 150 629 25 124 28 140 23 140 -3 0 -13 -35 -23 -77z"/>
<path d="M2171 664 c0 -11 3 -14 6 -6 3 7 2 16 -1 19 -3 4 -6 -2 -5 -13z"/>
<path d="M1954 581 c-45 -27 -64 -59 -64 -107 0 -49 28 -90 77 -110 30 -13 36
-12 71 10 49 31 59 44 67 88 12 65 -41 138 -102 138 -10 0 -32 -9 -49 -19z
m96 -31 c44 -44 33 -118 -22 -146 -59 -31 -126 23 -114 91 13 65 93 98 136 55z"/>
<path d="M2000 491 c0 -12 -5 -21 -12 -21 -6 0 -9 -2 -6 -5 3 -3 13 -3 22 1
18 7 22 29 6 39 -5 3 -10 -3 -10 -14z"/>
</g>
</svg>
